<?xml version="1.0" encoding="UTF-8"?>
<svg xmlns="http://www.w3.org/2000/svg" xmlns:xlink="http://www.w3.org/1999/xlink" width="30px" height="30px" viewBox="0 0 30 30" version="1.1">
<g id="surface1">
<path style="fill-rule:nonzero;fill:rgb(100%,0%,0%);fill-opacity:1;stroke-width:1;stroke-linecap:butt;stroke-linejoin:miter;stroke:rgb(100%,0%,0%);stroke-opacity:1;stroke-miterlimit:4;" d="M 55.929707 47.463 L 94.307992 9.084715 C 95.136123 8.268945 95.136123 6.921687 94.307992 6.093557 L 88.832443 0.618008 C 88.436918 0.222483 87.893071 0 87.336864 0 C 86.768297 0 86.23681 0.222483 85.841285 0.618008 L 47.463 38.996293 L 9.084715 0.618008 C 8.293665 -0.173042 6.884607 -0.173042 6.093557 0.618008 L 0.618008 6.093557 C -0.210123 6.921687 -0.210123 8.268945 0.618008 9.084715 L 38.996293 47.463 L 0.618008 85.841285 C -0.210123 86.657055 -0.210123 88.004312 0.618008 88.832443 L 6.093557 94.307992 C 6.489082 94.703517 7.032929 94.926 7.589136 94.926 C 8.157703 94.926 8.68919 94.703517 9.084715 94.307992 L 47.463 55.929707 L 85.841285 94.307992 C 86.23681 94.703517 86.780657 94.926 87.336864 94.926 C 87.893071 94.926 88.436918 94.703517 88.832443 94.307992 L 94.307992 88.832443 C 95.136123 88.004312 95.136123 86.657055 94.307992 85.841285 Z M 55.929707 47.463 " transform="matrix(0.316036,0,0,0.316036,0,0)"/>
</g>
</svg>
