<?xml version="1.0" encoding="UTF-8"?>
<svg xmlns="http://www.w3.org/2000/svg" xmlns:xlink="http://www.w3.org/1999/xlink" width="25px" height="25px" viewBox="0 0 25 25" version="1.1">
<g id="surface1">
<path style=" stroke:none;fill-rule:evenodd;fill:rgb(0%,0%,0%);fill-opacity:1;" d="M 1.5625 12.5 C 1.5625 10.15625 5.46875 4.6875 12.5 4.6875 C 19.53125 4.6875 23.4375 10.15625 23.4375 12.5 C 23.4375 14.84375 19.53125 20.3125 12.5 20.3125 C 5.46875 20.3125 1.5625 14.84375 1.5625 12.5 Z M 12.5 17.449219 C 15.234375 17.449219 17.449219 15.234375 17.449219 12.5 C 17.449219 9.765625 15.234375 7.550781 12.5 7.550781 C 9.765625 7.550781 7.550781 9.765625 7.550781 12.5 C 7.550781 15.234375 9.765625 17.449219 12.5 17.449219 Z M 15.3125 12.5 C 15.3125 14.054688 14.054688 15.3125 12.5 15.3125 C 10.945312 15.3125 9.6875 14.054688 9.6875 12.5 C 9.6875 10.945312 10.945312 9.6875 12.5 9.6875 C 14.054688 9.6875 15.3125 10.945312 15.3125 12.5 Z M 15.3125 12.5 "/>
</g>
</svg>
